PathFileType	4	(X/Y/Z)	pose_F01_0-87.trc
DataRate	CameraRate	NumFrames	NumMarkers	Units	OrigDataRate	OrigDataStartFrame	OrigNumFrames
30	30	7	21	m	30	54	87
Frame#	Time	CHip			RHip			RKnee			RAnkle			RBigToe			RSmallToe			RHeel			LHip			LKnee			LAnkle			LBigToe			LSmallToe			LHeel			Neck			Nose			RShoulder			RElbow			RWrist			LShoulder			LElbow			LWrist			
		X1	Y1	Z1	X2	Y2	Z2	X3	Y3	Z3	X4	Y4	Z4	X5	Y5	Z5	X6	Y6	Z6	X7	Y7	Z7	X8	Y8	Z8	X9	Y9	Z9	X10	Y10	Z10	X11	Y11	Z11	X12	Y12	Z12	X13	Y13	Z13	X14	Y14	Z14	X15	Y15	Z15	X16	Y16	Z16	X17	Y17	Z17	X18	Y18	Z18	X19	Y19	Z19	X20	Y20	Z20	X21	Y21	Z21	
54	1.8	-0.2262318053173264	1.8924189920185757	-0.6639716236377431	-0.23280533196097344	1.8923995931194966	-0.5991710129900576	-0.2110253099254604	1.7400043111228567	-0.5583402833163081	-0.24523689461064963	1.5892325249508794	-0.44737517944734373	-0.23048358941756245	1.5418694268263886	-0.4491917988837526	-0.23399048357812244	1.5396786816604227	-0.3998310245761274	-0.25279838064209204	1.5802419411026236	-0.43537726085173784	-0.2141789182075559	1.8929200250581089	-0.7329524118112865	-0.21860491251351669	1.7359705325023151	-0.6944219235407005	-0.22602744909117084	1.5853471530430558	-0.6613808527687459	-0.18766621626667807	1.5499741390219783	-0.6977190681049448	-0.1939180146198315	1.5547631213308932	-0.7213100891773889	-0.23523498157457703	1.572373958330056	-0.6377703397490344	-0.23017459225268275	2.062291569216413	-0.6865814448427736	-0.21020323954612036	2.124551968550029	-0.7212495231566848	-0.2422173545806827	2.068010879966193	-0.5983722806365577	-0.24942757311407254	1.994687484617115	-0.5064196738056379	-0.23815354849006634	2.0188664645255923	-0.43610649405438356	-0.22282151598149244	2.0541520024136535	-0.76780794558708	-0.2184298406486745	1.96909091976499	-0.7843548728734584	-0.18608541228053707	1.9598453349196912	-0.8942848062278729
55	1.8333333333333333	-0.22778030873315772	1.8931411802849663	-0.6587259652218137	-0.23307530537198953	1.8929201106060936	-0.5991275808713589	-0.21221359781233828	1.7387183516198295	-0.5613270350470292	-0.2529451940230201	1.5943765307144009	-0.4550974299870623	-0.23610823873164355	1.5509869681978061	-0.46286392672930604	-0.24078260936379675	1.5457768107098513	-0.4128615957569219	-0.25800597884805465	1.582048622719769	-0.44170651651651166	-0.2202314715364725	1.892537952413748	-0.7228935272014362	-0.22122580052462212	1.7334669028261827	-0.6914196325418482	-0.2260158762312476	1.588438213295252	-0.6616903741230701	-0.18908003512303864	1.549670359731444	-0.6922578202100285	-0.19355391489581414	1.5566796776423748	-0.7177422826584346	-0.23415523222034354	1.5761855283067776	-0.6434157962637878	-0.23538500710239224	2.060752578979889	-0.6846875146084965	-0.2129446311410131	2.1252478763146754	-0.7112493339082798	-0.24527349141313914	2.0668853473628426	-0.5994513765957064	-0.2503360035227269	1.9931773499974748	-0.5092342728910805	-0.23913869662374382	2.015478500373144	-0.43030827044058684	-0.22511027264758723	2.051859584017588	-0.7653276953971763	-0.21995260587625182	1.9687011450701128	-0.7786826521016995	-0.1783351275501975	1.9576640563543997	-0.8974477468300388
56	1.8666666666666667	-0.22790912741842587	1.8931618932059693	-0.6584847934256702	-0.2343197519086678	1.8926168424731047	-0.59375216121576	-0.21714680362089517	1.7418143221649536	-0.5693405436891401	-0.2606534934353906	1.5995205364779226	-0.46281968052678096	-0.24371636170389935	1.5602319068628736	-0.4849538650358727	-0.2475747351494711	1.5518749397592797	-0.42589216693771637	-0.26321357705401727	1.5838553043369143	-0.44803577218128554	-0.22165101876526105	1.8939840218082833	-0.7177990527400478	-0.22076469737846807	1.7359032704830133	-0.6920543834847095	-0.22686784601323579	1.5884030442873016	-0.6648686406990311	-0.19113928291389615	1.5463454387479254	-0.6894065531386199	-0.19372298608005317	1.5548170027465802	-0.7171287320886998	-0.2347432019389232	1.5746460525885928	-0.6467072332482661	-0.23875780139897707	2.0603351689967573	-0.677233087460494	-0.21903052887447103	2.1236384905016013	-0.6939135032193899	-0.24654058318346	2.0631695271950243	-0.59384724551087	-0.2524279295813635	1.98899945533362	-0.5062040795397758	-0.2366485581200902	2.0053903516991607	-0.4276610626306524	-0.2250859913125872	2.0520318496830297	-0.7652242688318827	-0.21991336536768816	1.9682238869461648	-0.7785636023217649	-0.1877123778317217	1.948911495064753	-0.8846327063002516
57	1.9	-0.2290960252006889	1.8916063952221527	-0.6528529423488237	-0.23743482174875652	1.8904433927567392	-0.5857619570222771	-0.22330162966999348	1.742615976736421	-0.5629419072403221	-0.2683617928477612	1.604664542241444	-0.47054193106649955	-0.25132448467615515	1.569476845527941	-0.5070438033424394	-0.2543668609351454	1.5579730688087083	-0.4389227381185108	-0.2684211752599799	1.5856619859540597	-0.45436502784605937	-0.22095209525462298	1.8942663116150333	-0.7144408053696726	-0.222927824999682	1.7389649028221736	-0.6901023066065854	-0.2269243716080372	1.591291331324791	-0.665128912887912	-0.19143917181446674	1.5506601924830774	-0.6895083574144142	-0.19553465998506578	1.556067787407798	-0.7154638898728909	-0.2370533477483945	1.5775151324521213	-0.6451492576482748	-0.24123352151586178	2.0586948790058974	-0.6664015903632451	-0.22031403422871387	2.1234224367312993	-0.6878015159095695	-0.2517865447112711	2.0629892854828413	-0.5842722173621362	-0.2502448824049882	1.9864966127984347	-0.5075290634277148	-0.236780963716988	1.9954127963752513	-0.4256935107809896	-0.22571038198091387	2.051555165235726	-0.7568877704788638	-0.22962490164119956	1.9645537504992214	-0.7609938600011886	-0.19265975430054277	1.9374512361973486	-0.8676444953742263
58	1.9333333333333333	-0.2368473769464078	1.8918121686264155	-0.6408014439580602	-0.24494653805742225	1.8897990661199038	-0.57351567050738	-0.2333154843853285	1.7395929520510367	-0.5604147562993216	-0.2760700922601317	1.6098085480049658	-0.4782641816062182	-0.26059920242364654	1.5742237958606164	-0.5199598831461834	-0.2611589867208197	1.5640711978581368	-0.4519533092993053	-0.2736287734659425	1.5874686675712053	-0.46069428351083325	-0.22353101024569927	1.8929778813070215	-0.7036203252864666	-0.22104857440298073	1.7398236464059542	-0.6839941554619969	-0.22726394250740248	1.5902373942874817	-0.6646329866987286	-0.1891763908779237	1.550093065774898	-0.6920720091357978	-0.19334852588635504	1.5557890755258412	-0.7179793472406645	-0.23758926074772582	1.5776102943016572	-0.6443827897517413	-0.24258111445263345	2.0573661380525428	-0.6610776113109643	-0.22167376019896903	2.1231875543484873	-0.6824785667915066	-0.2569741002450287	2.0625711167430927	-0.5746321744620764	-0.25600347116037686	1.9865345327495585	-0.5003739893504892	-0.23561111537457552	1.984007130208573	-0.41066498306864135	-0.2299280365838454	2.0500185025777022	-0.7414496424264938	-0.2304979792737008	1.9655935725552591	-0.7526893293381112	-0.20039367076640288	1.9266184991606705	-0.8483842963460675
59	1.9666666666666666	-0.24156146883742402	1.8908071388501182	-0.6277135683269393	-0.24821535565735026	1.888808422997892	-0.5657889997402487	-0.24714885994314087	1.7377760718293402	-0.5498191367091425	-0.2837783916725022	1.6149525537684872	-0.4859864321459368	-0.2655461517926421	1.572504012960401	-0.5189558122539344	-0.26795111250649406	1.5701693269075654	-0.46498388048009975	-0.2788363716719051	1.5892753491883507	-0.46702353917560707	-0.2306295928905209	1.8917957713270732	-0.6884466844102485	-0.22362574815080843	1.739430888344903	-0.6813461351407191	-0.22720361753895413	1.5898062970766569	-0.6645520631308274	-0.1926945015803291	1.5502003219778655	-0.6840601929483053	-0.19457827967012828	1.5554694509328513	-0.7122386645387381	-0.2375524392394804	1.5773156863065596	-0.6443444585026793	-0.2480868520421383	2.055434999813292	-0.6508764049874007	-0.23055375270606135	2.1203052391659445	-0.6651753235737592	-0.25813482625527134	2.060999820743501	-0.5686619974746963	-0.2589832810216121	1.9873683100353823	-0.49283812457532966	-0.23942386910781902	1.9686243938189725	-0.3942227622369271	-0.23779653687782046	2.048307608169225	-0.728959022076054	-0.24116410322374474	1.964834459242912	-0.7299792726786649	-0.20721836873091928	1.9218273878411276	-0.829190311669308
60	2.0	-0.24393399627174564	1.8886365650172505	-0.616551090719549	-0.25760773462160796	1.8861985568486657	-0.550953493650481	-0.25337317065484144	1.7357761328385741	-0.5429677404955596	-0.28621330554989566	1.6138098678183261	-0.49200381806146565	-0.2658223403528265	1.5740891500264504	-0.5186130955653969	-0.27474323829216835	1.5762674559569938	-0.47801445166089424	-0.2840439698778677	1.591082030805496	-0.47335279484038095	-0.23436297356607835	1.8907542115171723	-0.6804450365844913	-0.2266674956956493	1.7398161652070854	-0.6738440231718694	-0.22700837403808952	1.5915867610936822	-0.6649666327169158	-0.19719538719846585	1.5500801729021965	-0.6795784291253242	-0.19700703833339045	1.5562140613513484	-0.7099949428516779	-0.23785573992346215	1.5790094082822153	-0.6442279431096892	-0.25179487043023463	2.054043945292613	-0.6352044123517083	-0.23214652394670726	2.1199180072059796	-0.6517503587050871	-0.2613641090689958	2.059072656419871	-0.5523465604495786	-0.26216709858636483	1.9815090790837377	-0.48426312294554097	-0.2496544420447044	1.9456410926452414	-0.3792301628931461	-0.23618208447478367	2.0482459477850896	-0.7228767427805021	-0.23834700167018713	1.9641658907892756	-0.7204735824127197	-0.2128861131264174	1.9106331186355132	-0.8038461669442701
